<svg width="14" height="14" viewBox="0 0 14 14" fill="none" xmlns="http://www.w3.org/2000/svg">
<g id="Star">
<path id="Star_2" d="M10.7901 8.54673C10.6174 8.71407 10.5381 8.95607 10.5774 9.1934L11.1701 12.4734C11.2201 12.7514 11.1027 13.0327 10.8701 13.1934C10.6421 13.3601 10.3387 13.3801 10.0901 13.2467L7.13741 11.7067C7.03474 11.6521 6.92074 11.6227 6.80407 11.6194H6.62341C6.56074 11.6287 6.49941 11.6487 6.44341 11.6794L3.49007 13.2267C3.34407 13.3001 3.17874 13.3261 3.01674 13.3001C2.62207 13.2254 2.35874 12.8494 2.42341 12.4527L3.01674 9.17273C3.05607 8.9334 2.97674 8.69007 2.80407 8.52007L0.396741 6.18673C0.195407 5.9914 0.125407 5.69807 0.217407 5.4334C0.306741 5.1694 0.534741 4.97673 0.810074 4.9334L4.12341 4.45273C4.37541 4.42673 4.59674 4.2734 4.71007 4.04673L6.17007 1.0534C6.20474 0.986733 6.24941 0.9254 6.30341 0.8734L6.36341 0.826733C6.39474 0.792067 6.43074 0.7634 6.47074 0.740067L6.54341 0.7134L6.65674 0.666733H6.93741C7.18807 0.692733 7.40874 0.842733 7.52407 1.06673L9.00341 4.04673C9.11007 4.26473 9.31741 4.41607 9.55674 4.45273L12.8701 4.9334C13.1501 4.9734 13.3841 5.16673 13.4767 5.4334C13.5641 5.70073 13.4887 5.99407 13.2834 6.18673L10.7901 8.54673Z" fill="#FDC040"/>
</g>
</svg>
